<svg width="106" height="145" viewBox="0 0 106 145" fill="none" xmlns="http://www.w3.org/2000/svg">
<path d="M44.8605 70.5L5 34.5L32 5L61 31.5L43.5 51.5M43.5 51.5L33.5 42M43.5 51.5L53 60.5M33.5 42L41.5 33L33.5 26L26 34.5L33.5 42ZM53 60.5L71 42L101.5 70.5L76.5 98L57 80M53 60.5L35.5 82M57 80L65.25 71M57 80L47 92M65.25 71L73.5 62L83 70.5L74.5 79L65.25 71ZM47 92L65.25 109L38.5 140L8.5 112.5L26 92M47 92L35.5 82M26 92L37.5 102.5M26 92L35.5 82M37.5 102.5L47 111L38.5 120.5L29 111.5L37.5 102.5Z" stroke="#E8B24A" stroke-width="6"/>
</svg>
