<svg width="1500" height="800" viewBox="0 0 1500 800" fill="none" xmlns="http://www.w3.org/2000/svg">
<rect width="1500" height="800" fill="#8ECAE6"/>
<rect y="425" width="1500" height="375" fill="url(#paint0_linear_1203_1920)"/>
<circle cx="1337.76" cy="103" r="75" fill="url(#paint1_linear_1203_1920)"/>
<path d="M1290.76 112V93L1303.76 120.5V100.5L1306.76 134L1314.26 116L1310.26 143.5L1316.76 154.5C1310.76 153.833 1298.76 151.6 1298.76 148V136.5L1280.76 124L1294.26 129.5L1280.76 112L1290.76 120.5L1280.76 93L1290.76 112Z" fill="url(#paint2_linear_1203_1920)"/>
<path d="M1318.26 59C1318.26 64.5229 1313.84 79 1310.26 79C1306.67 79 1298.26 73.0228 1298.26 67.5C1298.26 61.9772 1300.17 59 1303.76 59C1307.34 59 1318.26 53.4772 1318.26 59Z" fill="url(#paint3_linear_1203_1920)" fill-opacity="0.46"/>
<path d="M1273.67 71.0889C1278.34 74.0358 1288.23 85.4904 1286.32 88.5265C1284.4 91.5626 1271.43 106.447 1266.75 103.5C1262.08 100.553 1264.02 86.3884 1265.93 83.3522C1267.85 80.3161 1269 68.142 1273.67 71.0889Z" fill="url(#paint4_linear_1203_1920)" fill-opacity="0.46"/>
<path d="M1346.76 107C1346.76 112.523 1339.34 114.455 1335.76 114.455C1332.17 114.455 1323.76 108.477 1323.76 102.955C1323.76 97.4317 1330.17 89 1333.76 89C1337.34 89 1335.76 92.5 1346.76 107Z" fill="url(#paint5_linear_1203_1920)" fill-opacity="0.46"/>
<path d="M1382.97 63.1352C1384.57 57.849 1392.22 58.1461 1395.66 59.1857C1399.09 60.2253 1405.41 68.3819 1403.81 73.668C1402.21 78.9542 1393.63 85.1683 1390.2 84.1287C1386.76 83.089 1389.3 80.1995 1382.97 63.1352Z" fill="url(#paint6_linear_1203_1920)" fill-opacity="0.46"/>
<path d="M1374.26 43.5454C1374.26 49.0683 1358.34 52 1354.76 52C1351.17 52 1342.76 46.0229 1342.76 40.5C1342.76 34.9772 1353.17 40.5 1356.76 40.5C1360.34 40.5 1374.26 38.0226 1374.26 43.5454Z" fill="url(#paint7_linear_1203_1920)" fill-opacity="0.46"/>
<path d="M1391.93 103.454C1406.93 137.5 1381.52 129 1377.93 129C1374.34 129 1359.43 115.5 1363.43 105.5C1363.43 99.9772 1368.34 93 1371.93 93C1375.52 93 1391.93 97.9316 1391.93 103.454Z" fill="url(#paint8_linear_1203_1920)" fill-opacity="0.46"/>
<path d="M1353.93 151C1356.52 163.226 1355.11 171.301 1352.43 176.5C1349.25 177.5 1343.25 178 1341.25 178C1337.26 178 1332.76 178 1330.26 177.5C1324.94 170.954 1322.24 161.794 1324.76 155.5C1324.76 149.977 1340.67 156.546 1344.26 156.546C1347.85 156.546 1353.93 145.477 1353.93 151Z" fill="url(#paint9_linear_1203_1920)" fill-opacity="0.46"/>
<path d="M963 325L1103.5 233H1176C1176 233 1270.46 254.845 1325 283C1378.07 310.395 1449 372.5 1449 372.5L1176 425H963V325Z" fill="url(#paint10_linear_1203_1920)"/>
<path d="M743 287.5C743 287.5 841.472 277.149 902 259.5C962.26 241.929 1017.78 238.889 1074 234C1143 228 1095.5 241 1080.5 269.5C1065.5 298 1002 303.5 988 329.5C974 355.5 975 398 975 398L778 361L743 287.5Z" fill="url(#paint11_linear_1203_1920)"/>
<path d="M1383.5 352.5C1434.02 321.401 1500 255 1500 255V426L1174.5 425C1174.5 425 1310.45 397.467 1383.5 352.5Z" fill="url(#paint12_linear_1203_1920)"/>
<path d="M558.5 240L617 188C617 188 735.28 281.363 819.5 327.5C906.008 374.89 1052.5 425 1052.5 425H957H771H524L558.5 240Z" fill="url(#paint13_linear_1203_1920)"/>
<path d="M719.5 300.5L677 257L632.5 223.5C632.5 223.5 635.856 246.138 631.5 252.5C627.144 258.862 595 285 595 285C595 285 630 283 657 287C683.283 290.894 719.5 300.5 719.5 300.5Z" fill="url(#paint14_linear_1203_1920)"/>
<path d="M703.5 265.5L655 217.5L615.139 187.213C615.139 187.213 621.555 199.992 618.291 202.832C615.028 205.673 612.5 210 612.5 210C612.5 210 611.62 211.501 638 217.5C663.68 223.34 703.5 265.5 703.5 265.5Z" fill="url(#paint15_linear_1203_1920)"/>
<path d="M309 276.5C309 276.5 407.472 266.149 468 248.5C528.26 230.929 616.5 187 616.5 187C616.5 187 641 220.5 633 248.5C625 276.5 568 292.5 554 318.5C540 344.5 541 383 541 383L344 350L309 276.5Z" fill="url(#paint16_linear_1203_1920)"/>
<path d="M125 189L278.5 231.5C278.5 231.5 332.5 288.712 433.5 337.5C492.5 366 707 425.5 707 425.5H135L125 189Z" fill="url(#paint17_linear_1203_1920)"/>
<path d="M0 383.52V259.52L127 189.02C127 189.02 137 187.52 167 210.52C202.348 237.62 288 210.02 288 247.02C288 284.02 108.748 279.571 138.5 342.02C156.642 380.1 155 370.02 234.5 391.52C312.279 412.555 438 425.52 438 425.52H0V383.52Z" fill="url(#paint18_linear_1203_1920)"/>
<path d="M138.5 342.02C108.748 279.571 288 284.02 288 247.02C288 210.02 202.348 237.62 167 210.52C167 210.52 121.06 247.35 88 265C55.3741 282.419 0 300 0 300V383.52L138.5 342.02Z" fill="url(#paint19_linear_1203_1920)"/>
<path d="M0 425.52H438C438 425.52 293.816 404.235 215 387.5C142 372 132 353.5 139 315L0 383.52V425.52Z" fill="url(#paint20_linear_1203_1920)"/>
<defs>
<linearGradient id="paint0_linear_1203_1920" x1="750" y1="425" x2="750" y2="800" gradientUnits="userSpaceOnUse">
<stop stop-color="#FFB91C"/>
<stop offset="1" stop-color="#A34E00"/>
</linearGradient>
<linearGradient id="paint1_linear_1203_1920" x1="1278.76" y1="135.5" x2="1417.26" y2="121" gradientUnits="userSpaceOnUse">
<stop stop-color="#F2F1F1"/>
<stop offset="1" stop-color="#B4B4B4" stop-opacity="0.67"/>
</linearGradient>
<linearGradient id="paint2_linear_1203_1920" x1="1278.26" y1="113.5" x2="1301.26" y2="146.5" gradientUnits="userSpaceOnUse">
<stop stop-color="#424242"/>
<stop offset="1" stop-color="#424242" stop-opacity="0"/>
</linearGradient>
<linearGradient id="paint3_linear_1203_1920" x1="1307.26" y1="61" x2="1310.26" y2="79" gradientUnits="userSpaceOnUse">
<stop stop-color="#312C2D"/>
<stop offset="1" stop-color="#343131" stop-opacity="0.25"/>
</linearGradient>
<linearGradient id="paint4_linear_1203_1920" x1="1269.49" y1="81.4593" x2="1286.32" y2="88.5265" gradientUnits="userSpaceOnUse">
<stop stop-color="#312C2D" stop-opacity="0.54"/>
<stop offset="1" stop-color="#343131" stop-opacity="0.25"/>
</linearGradient>
<linearGradient id="paint5_linear_1203_1920" x1="1343.76" y1="109" x2="1323.76" y2="100" gradientUnits="userSpaceOnUse">
<stop stop-color="#312C2D"/>
<stop offset="1" stop-color="#343131" stop-opacity="0.25"/>
</linearGradient>
<linearGradient id="paint6_linear_1203_1920" x1="1386.42" y1="62.0897" x2="1402.96" y2="76.496" gradientUnits="userSpaceOnUse">
<stop stop-color="#312C2D"/>
<stop offset="1" stop-color="#343131" stop-opacity="0.25"/>
</linearGradient>
<linearGradient id="paint7_linear_1203_1920" x1="1351.76" y1="54.4546" x2="1354.76" y2="72.4546" gradientUnits="userSpaceOnUse">
<stop stop-color="#312C2D"/>
<stop offset="1" stop-color="#343131" stop-opacity="0.25"/>
</linearGradient>
<linearGradient id="paint8_linear_1203_1920" x1="1374.43" y1="135.5" x2="1348.93" y2="114.455" gradientUnits="userSpaceOnUse">
<stop stop-color="#312C2D"/>
<stop offset="1" stop-color="#343131" stop-opacity="0.25"/>
</linearGradient>
<linearGradient id="paint9_linear_1203_1920" x1="1336.43" y1="166.5" x2="1310.93" y2="145.455" gradientUnits="userSpaceOnUse">
<stop stop-color="#312C2D" stop-opacity="0.4"/>
<stop offset="1" stop-color="#343131" stop-opacity="0.25"/>
</linearGradient>
<linearGradient id="paint10_linear_1203_1920" x1="1471.5" y1="410.5" x2="1147" y2="305.5" gradientUnits="userSpaceOnUse">
<stop offset="0.0605532" stop-color="#FF9100" stop-opacity="0.8"/>
<stop offset="1" stop-color="#FEA545"/>
</linearGradient>
<linearGradient id="paint11_linear_1203_1920" x1="1014" y1="288.5" x2="851" y2="317" gradientUnits="userSpaceOnUse">
<stop stop-color="#FAC95E"/>
<stop offset="0.0001" stop-color="#FAC95E"/>
<stop offset="1" stop-color="#FF9E00"/>
</linearGradient>
<linearGradient id="paint12_linear_1203_1920" x1="1318" y1="413.5" x2="1593" y2="351" gradientUnits="userSpaceOnUse">
<stop stop-color="#FF9E00"/>
<stop offset="0.92232" stop-color="#FF7900"/>
</linearGradient>
<linearGradient id="paint13_linear_1203_1920" x1="614" y1="329.5" x2="1160.5" y2="450" gradientUnits="userSpaceOnUse">
<stop stop-color="#EA6400"/>
<stop offset="0.364583" stop-color="#FF9100"/>
</linearGradient>
<linearGradient id="paint14_linear_1203_1920" x1="633.951" y1="248.244" x2="731.616" y2="309.657" gradientUnits="userSpaceOnUse">
<stop stop-color="#785F47"/>
<stop offset="1" stop-color="#B0651D" stop-opacity="0"/>
</linearGradient>
<linearGradient id="paint15_linear_1203_1920" x1="620.031" y1="200.866" x2="694.104" y2="275.769" gradientUnits="userSpaceOnUse">
<stop stop-color="#958475"/>
<stop offset="1" stop-opacity="0"/>
</linearGradient>
<linearGradient id="paint16_linear_1203_1920" x1="580" y1="277.5" x2="417" y2="306" gradientUnits="userSpaceOnUse">
<stop stop-color="#FAC95E"/>
<stop offset="0.0001" stop-color="#FAC95E"/>
<stop offset="1" stop-color="#FF9E00"/>
</linearGradient>
<linearGradient id="paint17_linear_1203_1920" x1="202.5" y1="276.5" x2="575.5" y2="412" gradientUnits="userSpaceOnUse">
<stop stop-color="#FF6D00"/>
<stop offset="0.328125" stop-color="#FF8500"/>
<stop offset="0.411458" stop-color="#FF8500" stop-opacity="0.93"/>
<stop offset="0.901042" stop-color="#FF9E00"/>
</linearGradient>
<linearGradient id="paint18_linear_1203_1920" x1="144.5" y1="197.5" x2="-7.29701e-06" y2="350" gradientUnits="userSpaceOnUse">
<stop stop-color="#FF8500"/>
<stop offset="1" stop-color="#FF9E00"/>
</linearGradient>
<linearGradient id="paint19_linear_1203_1920" x1="265.5" y1="247.5" x2="-24.5" y2="368.5" gradientUnits="userSpaceOnUse">
<stop offset="0.015625" stop-color="#FAC95E"/>
<stop offset="0.360507" stop-color="#FF9E00"/>
<stop offset="0.798398" stop-color="#FF6D00"/>
</linearGradient>
<linearGradient id="paint20_linear_1203_1920" x1="178.5" y1="333" x2="219" y2="425.52" gradientUnits="userSpaceOnUse">
<stop stop-color="#FF9E00"/>
<stop offset="1" stop-color="#FF933B"/>
</linearGradient>
</defs>
</svg>
