<svg width="1080" height="1688" viewBox="0 0 1080 1688" fill="none" xmlns="http://www.w3.org/2000/svg">
<rect width="1080" height="1688" fill="url(#paint0_linear_1193_2096)"/>
<rect x="147" y="145" width="785" height="1397" rx="392.5" fill="#424356"/>
<path d="M156 1242L293.395 1128C293.395 1128 409.891 1243.9 472.188 1298.39C508.579 1330.23 604 1456.43 604 1456.43L818.5 1427C818.5 1427 784 1459 757.5 1476C725.307 1496.65 706.051 1507.23 670 1520C631.269 1533.72 607.994 1538.67 567 1541.5C521.849 1544.61 495.602 1542.16 451.5 1532C384.813 1516.63 353.5 1507.5 293.395 1456.43C241.461 1418.37 206 1358.5 193.5 1335.5C173.501 1298.7 156 1242 156 1242Z" fill="url(#paint1_linear_1193_2096)"/>
<path d="M156 1242L293.395 1128C293.395 1128 409.891 1243.9 472.188 1298.39C508.579 1330.23 604 1456.43 604 1456.43L818.5 1427C818.5 1427 784 1459 757.5 1476C725.307 1496.65 706.051 1507.23 670 1520C631.269 1533.72 607.994 1538.67 567 1541.5C521.849 1544.61 495.602 1542.16 451.5 1532C384.813 1516.63 353.5 1507.5 293.395 1456.43C241.461 1418.37 206 1358.5 193.5 1335.5C173.501 1298.7 156 1242 156 1242Z" fill="url(#paint2_linear_1193_2096)"/>
<path d="M870.573 945.697L880.506 927.802C880.506 927.802 894.973 936.011 904.724 940.222C914.39 944.397 932.655 946.545 932.655 946.545L932.324 1002.65L932 1127.5L889.5 1098.5C889.5 1098.5 845.546 1067.21 845.5 1038C845.48 1025.27 853.793 1006.46 853.793 1006.46L850.889 946.653L870.573 945.697Z" fill="url(#paint3_linear_1193_2096)"/>
<path d="M718.5 1015C718.5 1015 835.536 949.109 842.998 947.236C857.403 943.621 855.221 945.139 878.958 927.998C883.797 924.503 871.749 943.296 875.702 949.385C878.254 953.316 888.464 957.276 887.846 968.594C887.231 979.863 871.65 978.199 866.782 988.381C864.524 993.107 866.026 996.927 863.115 1001.28C855.092 1013.28 852.625 1012.18 849.5 1021C843.754 1037.22 856.5 1064.5 856.5 1064.5L772 1053L718.5 1015Z" fill="url(#paint4_linear_1193_2096)"/>
<path d="M718.5 1015C718.5 1015 835.536 949.109 842.998 947.236C857.403 943.621 855.221 945.139 878.958 927.998C883.797 924.503 871.749 943.296 875.702 949.385C878.254 953.316 888.464 957.276 887.846 968.594C887.231 979.863 871.65 978.199 866.782 988.381C864.524 993.107 866.026 996.927 863.115 1001.28C855.092 1013.28 852.625 1012.18 849.5 1021C843.754 1037.22 856.5 1064.5 856.5 1064.5L772 1053L718.5 1015Z" fill="url(#paint5_linear_1193_2096)" fill-opacity="0.2"/>
<path d="M835.95 968.474L876.18 939.95C876.18 939.95 874 946.5 875.5 949C877 951.5 881.568 954.617 881.568 954.617C881.568 954.617 869.217 957.108 862.061 958.997C854.729 960.934 835.95 968.474 835.95 968.474Z" fill="url(#paint6_linear_1193_2096)"/>
<path d="M849.875 950.716L875.403 930.824C875.403 930.824 879.609 927.36 880.255 927.567C880.901 927.774 879.122 932.074 879.122 932.074C879.122 932.074 876.9 937.644 871.72 938.842C866.414 940.068 849.875 950.716 849.875 950.716Z" fill="url(#paint7_linear_1193_2096)"/>
<path d="M813.5 1012.5L872.581 982.404C872.581 982.404 866.122 986.932 866.831 990.078C867.54 993.224 863.627 1001.05 863.627 1001.05C863.627 1001.05 861.515 1005.05 855.279 1005.98C847.859 1007.1 813.5 1012.5 813.5 1012.5Z" fill="url(#paint8_linear_1193_2096)"/>
<path d="M796.932 1041.09L855.499 1011C855.499 1011 851.5 1015.5 850.263 1018.67C849.027 1021.85 848.15 1026.41 848 1031.5C847.818 1037.61 850.263 1047 850.263 1047C850.263 1047 849.219 1049.2 843.999 1050.5C835.999 1052.5 796.932 1041.09 796.932 1041.09Z" fill="url(#paint9_linear_1193_2096)"/>
<path d="M400 1004.5L442.5 990C442.5 990 465.28 986.773 502 995.5C546.039 1005.97 572.242 1018.55 634.587 1048.67C671.006 1066.26 730.573 1102.99 730.573 1102.99H450.33L400 1004.5Z" fill="url(#paint10_linear_1193_2096)"/>
<path d="M367 1077.07L336.5 1016.5L348.5 1016.5C348.5 1016.5 417.915 989.5 451 989.5C478.494 989.5 414.5 987.661 414.5 1010.5C414.5 1033.34 434.128 1012.91 452.493 1051.46C463.691 1074.96 462.678 1068.74 511.751 1082.01C559.762 1094.99 557.5 1103 557.5 1103H367V1077.07Z" fill="url(#paint11_linear_1193_2096)"/>
<path d="M590.5 987.5L641.5 997C641.5 997 679.28 1003.77 716 1012.5C773 1026.05 767 1026.5 835.587 1048.67C874.073 1061.1 931.573 1102.99 931.573 1102.99C931.573 1102.99 933 1164 930 1188.5C927.744 1206.93 926.458 1225.9 923 1241C917.543 1264.83 910 1280.5 910 1280.5L751.5 1212.5L579 1082.5L590.5 987.5Z" fill="url(#paint12_linear_1193_2096)"/>
<path d="M447.5 1265.5L470.5 1097.5C470.5 1097.5 514 1051.5 549.5 1016.5C560.982 1005.18 572.862 995.794 576.5 993.501C599.5 979 597.5 993 588.5 1014C579.5 1035 619.635 1011.45 638 1050C649.199 1073.51 646.427 1100.73 695.5 1114C743.511 1126.98 723.189 1186.84 762 1199.5C832.492 1222.49 860.714 1245.5 863.5 1252C866.286 1258.5 916.5 1264.5 916.5 1264.5C916.5 1264.5 914.321 1268.31 906 1290C901.582 1301.51 898.843 1307.89 893.5 1319C887.937 1330.57 878 1348 878 1348C878 1348 868.932 1363.18 862.5 1372.5C855.689 1382.37 844 1397 844 1397L567 1307L447.5 1265.5Z" fill="url(#paint13_linear_1193_2096)"/>
<path d="M224.157 957L318.909 983.234C318.909 983.234 352.242 1018.55 414.587 1048.67C451.006 1066.26 546.5 1136 546.5 1136L510.573 1154L230.33 1102.99L224.157 957Z" fill="url(#paint14_linear_1193_2096)"/>
<path d="M224.157 957L318.909 983.234C318.909 983.234 352.242 1018.55 414.587 1048.67C451.006 1066.26 546.5 1136 546.5 1136L510.573 1154L230.33 1102.99L224.157 957Z" fill="url(#paint15_linear_1193_2096)"/>
<path d="M147 1077.07V1000.53L225.394 957.012C225.394 957.012 231.567 956.086 250.085 970.284C271.904 987.012 324.775 969.975 324.775 992.814C324.775 1015.65 214.128 1012.91 232.493 1051.46C243.691 1074.96 242.678 1068.74 291.751 1082.01C339.762 1094.99 417.367 1103 417.367 1103H147V1077.07Z" fill="url(#paint16_linear_1193_2096)"/>
<path d="M232.493 1051.46C214.128 1012.91 324.775 1015.66 324.775 992.82C324.775 969.981 271.904 987.018 250.085 970.29C250.085 970.29 221.727 993.024 201.32 1003.92C181.181 1014.67 147 1025.52 147 1025.52V1077.08L232.493 1051.46Z" fill="url(#paint17_linear_1193_2096)"/>
<path d="M147 1077.07V1103C147 1103 146.5 1152 148 1180.5C149.5 1209 159.5 1248.5 159.5 1248.5C159.5 1248.5 242.128 1205.39 290.5 1224.5C338.081 1243.3 330.199 1296.25 369.5 1329C408.5 1361.5 559.5 1444 612.5 1458C681.999 1476.36 788 1453.5 788 1453.5C788 1453.5 810 1436 824 1420.5C833.469 1410.02 847.5 1393 847.5 1393C847.5 1393 794.647 1349.14 748.5 1329C638.5 1281 659.067 1247.92 630.5 1224.5C600 1199.5 577.602 1154.56 548 1136C503.419 1108.05 468.841 1113.91 417.367 1103C364.019 1091.69 328.366 1089.86 279.714 1079.53C234.653 1069.96 228.48 1058.54 232.801 1034.78L147 1077.07Z" fill="url(#paint18_linear_1193_2096)"/>
<path d="M147 1077.07V1103C147 1103 146.5 1152 148 1180.5C149.5 1209 159.5 1248.5 159.5 1248.5C159.5 1248.5 242.128 1205.39 290.5 1224.5C338.081 1243.3 330.199 1296.25 369.5 1329C408.5 1361.5 559.5 1444 612.5 1458C681.999 1476.36 788 1453.5 788 1453.5C788 1453.5 810 1436 824 1420.5C833.469 1410.02 847.5 1393 847.5 1393C847.5 1393 794.647 1349.14 748.5 1329C638.5 1281 659.067 1247.92 630.5 1224.5C600 1199.5 577.602 1154.56 548 1136C503.419 1108.05 468.841 1113.91 417.367 1103C364.019 1091.69 328.366 1089.86 279.714 1079.53C234.653 1069.96 228.48 1058.54 232.801 1034.78L147 1077.07Z" fill="url(#paint19_linear_1193_2096)" fill-opacity="0.2"/>
<circle cx="831" cy="560" r="75" fill="url(#paint20_linear_1193_2096)"/>
<circle cx="485" cy="349" r="10" fill="#DF7011"/>
<circle cx="286" cy="406" r="4" fill="#DF7011"/>
<circle cx="239" cy="661" r="10" fill="#DF7011"/>
<circle cx="665" cy="288" r="5" fill="#DF7011"/>
<circle cx="626" cy="448" r="5" fill="#DF7011"/>
<circle cx="400" cy="834" r="5" fill="#DF7011"/>
<circle cx="761" cy="844" r="5" fill="#DF7011"/>
<path d="M841 502.455C841 507.977 836.59 522.455 833 522.455C829.41 522.455 821 516.477 821 510.955C821 505.432 822.91 502.455 826.5 502.455C830.09 502.455 841 496.932 841 502.455Z" fill="url(#paint21_linear_1193_2096)" fill-opacity="0.46"/>
<path d="M812.5 517.826C812.5 523.349 805.5 527.826 802.5 527.826C801 527.826 800 526.326 800 524.826C800.5 522.326 804.41 517.327 808 517.327C809 517.326 811.5 516.327 812.5 517.826Z" fill="url(#paint22_linear_1193_2096)" fill-opacity="0.46"/>
<path d="M777.561 536.712C779.5 541.883 768.809 553.947 766 555C764.595 555.527 760.678 551 760.062 547.212C759.652 544.695 763.139 537.972 766.501 536.712C771.94 535 776.098 535.659 777.561 536.712Z" fill="url(#paint23_linear_1193_2096)" fill-opacity="0.46"/>
<path d="M824.167 616.907C828.791 613.887 839.359 619.489 841 622C841.82 623.256 839.423 628.087 838.167 628.907C835.8 629.856 828.13 628.913 826.167 625.907C825.62 625.07 823.459 618.565 824.167 616.907Z" fill="url(#paint24_linear_1193_2096)" fill-opacity="0.46"/>
<path d="M816.5 554.826C816.5 560.349 809.5 564.826 806.5 564.826C805 564.826 804 563.326 804 561.826C804.5 559.326 805.41 552 809 552C810 552 815.5 553.327 816.5 554.826Z" fill="url(#paint25_linear_1193_2096)" fill-opacity="0.46"/>
<path d="M809.369 593.294C813.674 596.754 812.78 605.015 810.901 607.353C809.961 608.523 803.669 605.44 802.5 604.5C800.864 602.544 797.252 598.799 799.501 596C800.127 595.221 806.996 592 809.369 593.294Z" fill="url(#paint26_linear_1193_2096)" fill-opacity="0.46"/>
<path d="M774.199 603.099C768.73 602.333 764.45 591.164 764.866 588.193C765.074 586.708 770.057 584.644 771.542 584.852C773.949 585.694 775 591.539 774.502 595.095C774.364 596.085 775.823 602.316 774.199 603.099Z" fill="url(#paint27_linear_1193_2096)" fill-opacity="0.46"/>
<defs>
<linearGradient id="paint0_linear_1193_2096" x1="540" y1="-782" x2="540" y2="1763" gradientUnits="userSpaceOnUse">
<stop offset="0.265625" stop-color="#E47513"/>
<stop offset="1" stop-color="#BB5008"/>
</linearGradient>
<linearGradient id="paint1_linear_1193_2096" x1="329.706" y1="1230.26" x2="580.061" y2="1280.48" gradientUnits="userSpaceOnUse">
<stop stop-color="#D0630E"/>
<stop offset="0.328125" stop-color="#F58D19"/>
<stop offset="0.411458" stop-color="#F58D19"/>
<stop offset="0.901042" stop-color="#FA9F1C"/>
</linearGradient>
<linearGradient id="paint2_linear_1193_2096" x1="602.501" y1="1400.33" x2="504.676" y2="1404.49" gradientUnits="userSpaceOnUse">
<stop stop-color="#F7961A"/>
<stop offset="1" stop-color="#F7961A" stop-opacity="0"/>
</linearGradient>
<linearGradient id="paint3_linear_1193_2096" x1="888.976" y1="927.064" x2="892.728" y2="1004.33" gradientUnits="userSpaceOnUse">
<stop stop-color="#FA9F1C"/>
<stop offset="1" stop-color="#F58D19"/>
</linearGradient>
<linearGradient id="paint4_linear_1193_2096" x1="855.631" y1="929.573" x2="858.42" y2="1006.06" gradientUnits="userSpaceOnUse">
<stop stop-color="#D0630E"/>
<stop offset="0.744792" stop-color="#BB5008"/>
<stop offset="1" stop-color="#A54708"/>
</linearGradient>
<linearGradient id="paint5_linear_1193_2096" x1="892.299" y1="974.068" x2="823.647" y2="942.257" gradientUnits="userSpaceOnUse">
<stop stop-color="#5B3612"/>
<stop offset="1" stop-color="#424356" stop-opacity="0"/>
</linearGradient>
<linearGradient id="paint6_linear_1193_2096" x1="875.145" y1="947.025" x2="831.676" y2="979.593" gradientUnits="userSpaceOnUse">
<stop stop-color="#424356"/>
<stop offset="1" stop-color="#424356" stop-opacity="0"/>
</linearGradient>
<linearGradient id="paint7_linear_1193_2096" x1="877.628" y1="934.42" x2="843.907" y2="955.538" gradientUnits="userSpaceOnUse">
<stop stop-color="#424356"/>
<stop offset="1" stop-color="#424356" stop-opacity="0"/>
</linearGradient>
<linearGradient id="paint8_linear_1193_2096" x1="865.068" y1="986.871" x2="831.347" y2="1007.99" gradientUnits="userSpaceOnUse">
<stop stop-color="#424356"/>
<stop offset="1" stop-color="#424356" stop-opacity="0"/>
</linearGradient>
<linearGradient id="paint9_linear_1193_2096" x1="848.5" y1="1015.47" x2="814.779" y2="1036.58" gradientUnits="userSpaceOnUse">
<stop stop-color="#424356"/>
<stop offset="1" stop-color="#424356" stop-opacity="0"/>
</linearGradient>
<linearGradient id="paint10_linear_1193_2096" x1="491.996" y1="1011.01" x2="722.24" y2="1094.65" gradientUnits="userSpaceOnUse">
<stop stop-color="#D0630E"/>
<stop offset="0.328125" stop-color="#F58D19"/>
<stop offset="0.411458" stop-color="#F58D19"/>
<stop offset="0.901042" stop-color="#FA9F1C"/>
</linearGradient>
<linearGradient id="paint11_linear_1193_2096" x1="456.196" y1="962.247" x2="367" y2="1056.38" gradientUnits="userSpaceOnUse">
<stop stop-color="#E47513"/>
<stop offset="1" stop-color="#FA9F1C"/>
</linearGradient>
<linearGradient id="paint12_linear_1193_2096" x1="826" y1="1189" x2="1047" y2="974" gradientUnits="userSpaceOnUse">
<stop stop-color="#D0630E"/>
<stop offset="0.340095" stop-color="#F58D19"/>
<stop offset="0.696437" stop-color="#F58D19"/>
<stop offset="0.901042" stop-color="#FA9F1C"/>
</linearGradient>
<linearGradient id="paint13_linear_1193_2096" x1="652.5" y1="989.999" x2="575.5" y2="1075" gradientUnits="userSpaceOnUse">
<stop stop-color="#E47513"/>
<stop offset="1" stop-color="#FA9F1C"/>
</linearGradient>
<linearGradient id="paint14_linear_1193_2096" x1="271.996" y1="1011.01" x2="502.24" y2="1094.65" gradientUnits="userSpaceOnUse">
<stop stop-color="#D0630E"/>
<stop offset="0.328125" stop-color="#F58D19"/>
<stop offset="0.411458" stop-color="#F58D19"/>
<stop offset="0.901042" stop-color="#FA9F1C"/>
</linearGradient>
<linearGradient id="paint15_linear_1193_2096" x1="545" y1="1105" x2="447.5" y2="1112.5" gradientUnits="userSpaceOnUse">
<stop stop-color="#F7961A"/>
<stop offset="1" stop-color="#F7961A" stop-opacity="0"/>
</linearGradient>
<linearGradient id="paint16_linear_1193_2096" x1="236.196" y1="962.247" x2="147" y2="1056.38" gradientUnits="userSpaceOnUse">
<stop stop-color="#E47513"/>
<stop offset="1" stop-color="#FA9F1C"/>
</linearGradient>
<linearGradient id="paint17_linear_1193_2096" x1="310.887" y1="993.116" x2="131.877" y2="1067.81" gradientUnits="userSpaceOnUse">
<stop offset="0.015625" stop-color="#FA9F1C"/>
<stop offset="0.360507" stop-color="#F58D19"/>
<stop offset="0.798398" stop-color="#E47513"/>
</linearGradient>
<linearGradient id="paint18_linear_1193_2096" x1="257.184" y1="1045.89" x2="282.183" y2="1103" gradientUnits="userSpaceOnUse">
<stop stop-color="#FA9F1C"/>
<stop offset="1" stop-color="#F58D19"/>
</linearGradient>
<linearGradient id="paint19_linear_1193_2096" x1="590" y1="1403" x2="690.5" y2="1327.5" gradientUnits="userSpaceOnUse">
<stop stop-color="#FFA523"/>
<stop offset="1" stop-color="#E47513"/>
</linearGradient>
<linearGradient id="paint20_linear_1193_2096" x1="711" y1="581" x2="910.5" y2="578" gradientUnits="userSpaceOnUse">
<stop stop-color="#F2F1F1"/>
<stop offset="1" stop-color="#424356"/>
</linearGradient>
<linearGradient id="paint21_linear_1193_2096" x1="830" y1="504.455" x2="833" y2="522.455" gradientUnits="userSpaceOnUse">
<stop offset="0.255208" stop-color="#424356"/>
<stop offset="1" stop-color="#424356" stop-opacity="0.24"/>
</linearGradient>
<linearGradient id="paint22_linear_1193_2096" x1="804.5" y1="518.281" x2="807.5" y2="536.281" gradientUnits="userSpaceOnUse">
<stop offset="0.255208" stop-color="#424356"/>
<stop offset="1" stop-color="#424356" stop-opacity="0.24"/>
</linearGradient>
<linearGradient id="paint23_linear_1193_2096" x1="759.5" y1="538.5" x2="785.5" y2="550.5" gradientUnits="userSpaceOnUse">
<stop offset="0.255208" stop-color="#424356"/>
<stop offset="1" stop-color="#424356" stop-opacity="0.24"/>
</linearGradient>
<linearGradient id="paint24_linear_1193_2096" x1="818.5" y1="627.5" x2="843" y2="620.5" gradientUnits="userSpaceOnUse">
<stop offset="0.255208" stop-color="#424356"/>
<stop offset="1" stop-color="#424356" stop-opacity="0.24"/>
</linearGradient>
<linearGradient id="paint25_linear_1193_2096" x1="808.5" y1="555.281" x2="813.5" y2="557" gradientUnits="userSpaceOnUse">
<stop offset="0.255208" stop-color="#424356"/>
<stop offset="1" stop-color="#9A9AA4"/>
</linearGradient>
<linearGradient id="paint26_linear_1193_2096" x1="804.712" y1="599.815" x2="809.184" y2="596.994" gradientUnits="userSpaceOnUse">
<stop offset="0.255208" stop-color="#424356"/>
<stop offset="1" stop-color="#9A9AA4"/>
</linearGradient>
<linearGradient id="paint27_linear_1193_2096" x1="774.042" y1="591.497" x2="767.5" y2="595.5" gradientUnits="userSpaceOnUse">
<stop offset="0.255208" stop-color="#424356"/>
<stop offset="1" stop-color="#424356" stop-opacity="0.24"/>
</linearGradient>
</defs>
</svg>
